<?xml version="1.0" standalone="no"?>
<!DOCTYPE svg PUBLIC "-//W3C//DTD SVG 20010904//EN"
 "http://www.w3.org/TR/2001/REC-SVG-20010904/DTD/svg10.dtd">
<svg version="1.0" xmlns="http://www.w3.org/2000/svg"
 width="360.000000pt" height="360.000000pt" viewBox="0 0 360.000000 360.000000"
 preserveAspectRatio="xMidYMid meet">
<metadata>
Created by potrace 1.11, written by Peter Selinger 2001-2013
</metadata>
<g transform="translate(0.000000,360.000000) scale(0.100000,-0.100000)"
fill="#000000" stroke="none">
<path d="M627 2454 c-1 -1 -24 -5 -52 -8 -112 -12 -256 -81 -353 -170 -61 -56
-146 -187 -168 -261 -48 -156 -46 -304 7 -436 23 -60 79 -168 79 -154 0 5 12
-9 26 -30 62 -95 228 -197 374 -231 43 -10 224 -11 238 -1 6 5 12 7 12 4 0 -9
99 22 150 46 80 38 124 70 193 139 69 71 79 91 50 103 -13 4 -32 -9 -73 -53
-79 -85 -195 -155 -295 -178 -127 -30 -240 -23 -355 21 -196 75 -325 224 -376
434 -12 52 -13 196 0 250 63 274 302 469 576 472 137 1 281 -47 380 -127 37
-30 110 -107 110 -116 0 -12 38 -10 45 2 9 14 -17 52 -69 104 -95 96 -237 168
-355 182 -49 6 -141 11 -144 8z"/>
<path d="M3019 2443 c-41 -8 -79 -15 -86 -16 -36 -8 -114 -59 -159 -102 -123
-122 -153 -313 -74 -482 38 -82 90 -137 166 -174 70 -35 86 -38 204 -45 116
-6 129 -10 136 -40 7 -25 -20 -69 -37 -59 -4 3 -10 2 -13 -3 -7 -12 -181 -2
-203 11 -6 4 -23 3 -37 -3 -35 -13 -24 -36 22 -46 20 -4 44 -9 52 -11 19 -5
170 -6 190 -1 46 10 78 55 75 103 -6 82 -29 97 -162 100 -54 2 -111 6 -128 10
-44 9 -118 52 -158 91 -31 30 -76 106 -84 139 -1 6 -4 21 -7 35 -8 35 -8 129
-1 165 11 53 52 130 90 170 61 64 186 112 282 111 35 -1 63 3 63 7 0 5 3 6 8
4 4 -3 32 -8 62 -12 61 -7 124 -21 155 -34 73 -32 95 -43 135 -70 43 -29 45
-29 58 -10 11 16 11 21 -2 34 -8 8 -19 15 -25 15 -6 0 -11 4 -11 9 0 4 -30 22
-67 39 -155 70 -298 91 -444 65z"/>
<path d="M1322 2401 c-9 -6 -12 -139 -10 -601 3 -558 4 -593 21 -596 9 -1 21
5 25 14 4 10 7 254 6 545 0 290 3 524 7 520 4 -5 35 -62 69 -128 35 -66 78
-149 98 -185 43 -80 121 -228 178 -339 24 -46 50 -92 59 -101 15 -17 38 -21
50 -9 3 3 -18 48 -45 100 -28 52 -65 123 -83 159 -17 36 -34 67 -37 70 -3 3
-29 50 -57 105 -206 397 -230 440 -245 440 -7 0 -15 3 -18 7 -3 4 -11 4 -18
-1z"/>
<path d="M1453 2402 c-21 -3 -18 -11 49 -140 39 -75 83 -159 98 -187 15 -27
53 -99 85 -160 32 -60 62 -116 68 -122 5 -7 6 -13 2 -13 -5 0 -2 -8 6 -17 8
-10 33 -54 54 -98 22 -44 42 -82 45 -85 3 -3 13 -18 22 -35 14 -26 30 -33 64
-26 3 1 -19 47 -49 104 -30 56 -82 156 -117 222 -34 66 -82 156 -105 200 -23
44 -73 139 -110 210 -37 72 -73 135 -79 141 -6 5 -21 8 -33 6z"/>
<path d="M1557 2396 c-2 -6 6 -29 18 -51 12 -22 43 -80 70 -130 26 -49 52 -96
58 -102 5 -7 6 -13 2 -13 -4 0 -3 -6 3 -12 10 -14 78 -139 146 -273 23 -44 46
-83 51 -87 6 -4 7 -8 2 -8 -4 0 3 -17 16 -37 12 -21 29 -51 37 -68 38 -78 59
-104 82 -100 21 4 57 40 58 57 0 3 16 34 34 67 19 34 32 61 28 61 -4 0 -2 4 4
8 6 4 32 50 59 102 26 52 62 122 80 155 18 33 59 110 90 170 32 61 64 121 72
135 8 15 13 19 14 10 6 -80 3 -979 -3 -992 -5 -9 -4 -19 1 -22 4 -3 7 -17 6
-31 -2 -14 1 -26 6 -26 47 -7 44 -50 44 585 0 476 -2 592 -13 603 -21 20 -48
-1 -78 -60 -15 -29 -29 -54 -33 -57 -3 -3 -7 -11 -9 -19 -2 -8 -12 -27 -23
-43 -11 -15 -18 -28 -15 -28 3 0 -10 -26 -27 -57 -18 -32 -43 -80 -57 -108
-14 -27 -27 -52 -30 -55 -3 -3 -20 -34 -38 -70 -125 -244 -166 -320 -171 -320
-3 0 -11 10 -17 23 -11 23 -120 232 -184 352 -87 163 -130 245 -174 329 -26
49 -51 95 -57 102 -14 17 -47 24 -52 10z"/>
<path d="M2206 2336 c-20 -39 -57 -109 -82 -156 -164 -307 -182 -344 -171
-367 5 -13 13 -23 17 -23 4 0 33 51 65 113 32 61 61 117 65 122 4 6 32 57 62
115 31 58 72 136 92 173 20 38 36 72 36 77 0 4 -11 10 -23 12 -21 4 -29 -4
-61 -66z"/>
<path d="M2357 2393 c-12 -19 -165 -311 -234 -443 -15 -30 -30 -57 -33 -60
-14 -14 -80 -157 -80 -173 0 -10 6 -24 13 -31 10 -11 24 8 72 103 33 64 62
118 65 121 3 3 23 41 44 85 22 44 48 92 58 108 11 15 16 27 12 27 -3 0 -2 6 4
13 5 6 29 48 52 92 24 44 53 99 66 123 l22 42 -28 0 c-16 0 -31 -3 -33 -7z"/>
<path d="M540 2334 c-86 -20 -179 -72 -252 -144 -38 -36 -68 -70 -68 -77 0 -6
-4 -13 -8 -15 -14 -5 -60 -111 -73 -164 -72 -318 138 -629 454 -671 82 -11
190 -3 227 17 11 6 20 8 20 5 0 -11 126 58 170 93 46 37 55 47 89 93 19 25 19
25 0 37 -17 11 -24 7 -61 -33 -95 -104 -212 -157 -356 -161 -151 -3 -274 46
-375 150 -38 40 -97 139 -97 163 0 10 -4 23 -9 29 -21 21 -31 154 -18 234 30
187 184 349 373 393 46 10 189 16 189 7 0 -1 11 -3 25 -5 80 -9 177 -63 252
-137 31 -32 61 -58 66 -58 5 0 15 7 22 15 11 13 2 26 -58 84 -137 134 -328
188 -512 145z"/>
<path d="M3011 2337 c-6 -6 -11 -8 -11 -4 0 11 -113 -42 -138 -66 -38 -35 -81
-102 -89 -138 -4 -19 -7 -68 -7 -109 2 -94 26 -152 89 -214 62 -59 121 -79
250 -81 56 -1 110 -7 123 -14 12 -6 22 -9 22 -5 0 4 11 -6 25 -22 24 -28 39
-71 38 -106 0 -10 -1 -29 -2 -41 -1 -34 -57 -94 -99 -108 -44 -15 -171 -18
-227 -7 -22 5 -64 18 -93 29 -42 17 -55 19 -67 9 -8 -7 -15 -16 -15 -19 0 -13
127 -66 170 -70 46 -6 200 -4 228 2 68 15 117 58 142 126 35 95 2 202 -77 248
-39 23 -59 27 -137 29 -107 3 -161 11 -196 29 -32 17 -80 61 -80 75 0 5 -4 10
-8 10 -5 0 -17 26 -26 58 -20 65 -17 137 7 194 27 65 108 129 185 145 35 8
210 7 242 -2 14 -3 36 -8 50 -11 14 -3 56 -21 94 -40 64 -32 71 -34 85 -19 15
15 14 18 -4 32 -39 30 -141 73 -210 87 -80 17 -249 18 -264 3z"/>
<path d="M608 2244 c-2 -1 -19 -6 -38 -9 -52 -9 -150 -61 -196 -103 -95 -88
-145 -202 -145 -332 0 -124 40 -217 130 -308 91 -92 190 -131 321 -126 94 2
110 6 190 46 56 28 160 117 160 138 0 4 -7 13 -15 20 -13 11 -24 4 -70 -39
-48 -45 -139 -99 -185 -108 -8 -2 -44 -5 -80 -6 -108 -5 -209 34 -287 112 -46
45 -97 139 -107 196 -7 37 -8 124 -3 145 2 8 7 29 12 45 20 79 138 225 181
225 8 0 14 4 14 8 0 9 57 29 110 39 123 25 277 -29 361 -125 24 -27 35 -33 47
-25 26 16 24 27 -13 66 -57 61 -148 113 -230 133 -31 7 -152 14 -157 8z"/>
<path d="M3056 2243 c-2 -2 -16 -6 -32 -9 -35 -6 -83 -33 -107 -59 -23 -24
-50 -75 -41 -75 4 0 2 -6 -3 -12 -14 -18 -7 -115 11 -153 36 -75 93 -102 219
-104 164 -3 241 -40 287 -139 34 -69 33 -172 0 -237 -54 -103 -145 -145 -310
-140 -58 1 -116 5 -130 9 -54 13 -123 42 -163 69 -22 15 -31 16 -42 7 -8 -7
-15 -18 -15 -25 0 -13 94 -66 151 -84 99 -32 224 -42 309 -26 19 3 43 7 53 8
9 1 17 5 17 9 0 4 7 5 15 2 8 -4 15 -1 15 5 0 6 7 11 16 11 8 0 41 26 73 57
69 70 90 125 87 228 -3 120 -64 218 -162 265 -55 25 -96 32 -206 33 -49 0 -88
4 -88 9 0 4 -9 8 -19 8 -11 0 -29 13 -40 28 -31 44 -38 82 -29 161 3 27 64 79
108 91 47 13 157 16 200 6 70 -16 98 -24 119 -35 26 -14 74 -6 69 11 -6 17
-59 46 -85 47 -13 1 -23 5 -23 9 0 5 -6 9 -12 9 -7 0 -31 4 -53 8 -42 8 -183
13 -189 8z"/>
<path d="M647 2144 c-1 -1 -16 -5 -32 -8 -17 -2 -32 -5 -35 -6 -3 -1 -9 -3
-15 -4 -25 -6 -75 -31 -75 -38 0 -4 -5 -8 -12 -8 -32 0 -148 -165 -133 -190 4
-6 2 -10 -3 -10 -17 0 -6 -153 15 -203 53 -132 204 -225 340 -210 45 4 103 22
121 36 6 5 12 7 12 3 0 -8 46 30 88 73 32 33 33 34 13 47 -18 13 -24 11 -67
-30 -26 -25 -49 -45 -53 -44 -3 1 -22 -6 -41 -14 -39 -18 -106 -29 -115 -20
-3 3 -20 7 -38 7 -48 3 -101 30 -147 76 -59 60 -82 110 -84 188 -3 72 10 122
47 175 23 34 108 109 115 101 2 -2 18 3 35 10 31 13 128 14 175 2 47 -12 148
-88 135 -101 -8 -8 11 -8 31 0 9 3 16 13 16 20 0 18 -78 94 -97 94 -7 0 -13 5
-13 10 0 6 -8 10 -18 10 -10 0 -22 4 -28 10 -9 9 -130 30 -137 24z"/>
<path d="M3094 2141 c-3 -3 -19 -6 -37 -7 -39 -3 -87 -53 -87 -89 0 -31 24
-90 40 -100 7 -4 56 -9 109 -11 85 -2 134 -8 166 -18 36 -12 75 -32 75 -38 0
-4 6 -8 13 -8 19 0 90 -78 109 -120 28 -62 42 -129 38 -185 -5 -78 -8 -95 -32
-145 -27 -60 -84 -130 -105 -130 -7 0 -13 -4 -13 -8 0 -10 -84 -50 -120 -58
-14 -3 -36 -8 -50 -11 -56 -13 -208 -5 -284 16 -70 19 -164 57 -176 71 -3 3
-17 13 -33 23 -24 16 -30 16 -48 4 -19 -14 -18 -16 28 -50 115 -83 240 -120
408 -121 100 0 146 7 217 34 126 47 220 152 249 276 33 147 -10 314 -107 411
-30 29 -144 100 -144 88 0 -2 -12 0 -27 6 -16 6 -75 13 -131 14 -79 2 -108 7
-120 19 -24 24 -5 67 33 78 33 8 162 5 211 -7 23 -5 35 -2 49 11 17 17 16 18
-17 30 -56 19 -203 36 -214 25z"/>
<path d="M2402 2081 c-22 -47 -22 -49 -20 -461 l3 -413 23 -3 c22 -4 22 -2 22
114 2 435 1 805 -2 807 -2 2 -13 -18 -26 -44z"/>
<path d="M1418 2108 c-2 -7 -4 -213 -4 -458 l1 -444 25 0 25 0 1 409 c0 401 0
411 -22 458 -12 26 -23 42 -26 35z"/>
<path d="M2312 1915 c-7 -8 -10 -15 -7 -15 3 0 -2 -12 -12 -26 -15 -23 -17
-62 -17 -348 0 -342 -2 -324 43 -317 4 0 8 163 8 361 -1 198 -1 360 -1 360 -1
-1 -7 -7 -14 -15z"/>
<path d="M1520 1920 c-1 -5 -3 -640 -1 -690 1 -21 6 -26 25 -26 l24 0 1 322
c1 273 -1 324 -13 337 -8 8 -12 17 -9 21 4 3 1 6 -5 6 -6 0 -13 8 -15 18 -3 9
-6 15 -7 12z"/>
<path d="M2196 1682 c-23 -37 -23 -43 -23 -258 l0 -220 23 0 c13 0 24 5 25 11
2 25 4 505 2 505 -2 0 -13 -17 -27 -38z"/>
<path d="M1624 1458 l1 -251 23 -3 c12 -2 22 2 23 9 1 6 2 102 3 212 2 174 0
205 -16 237 -10 20 -21 39 -26 42 -5 3 -8 -108 -8 -246z"/>
</g>
</svg>
